<?xml version="1.0" encoding="utf-8"?>
<!-- Generator: Adobe Illustrator 20.1.0, SVG Export Plug-In . SVG Version: 6.00 Build 0)  -->
<svg version="1.1" id="Слой_1" xmlns="http://www.w3.org/2000/svg" xmlns:xlink="http://www.w3.org/1999/xlink" x="0px" y="0px"
	 viewBox="0 0 512 512" style="enable-background:new 0 0 512 512;" xml:space="preserve">
<style type="text/css">
	.st0{fill:#FEFEFE;}
	.st1{fill:#E3F8FF;}
</style>
<path class="st0" d="M513.2,9.2c0-5.1-1.2-6.3-6.3-6.3C340.7,3.1,174.4,3.1,8.2,2.9c-5.1,0-6.3,1.2-6.3,6.3
	C2.1,92,2.1,174.8,2.1,257.5c0,83.5,0.1,166.9-0.1,250.4c0,5.1,1.2,6.3,6.3,6.3c166.2-0.2,332.5-0.2,498.7,0c5.1,0,6.3-1.2,6.3-6.3
	C513,341.7,513,175.4,513.2,9.2z"/>
<g>
	<path class="st1" d="M279.2,95c0,15.3-9.9,25-25.5,25.1c-13.5,0-26-11.7-25.7-24.7c0.5-16.7,13.1-26.7,26.4-26.6
		C268.8,68.9,279.1,79.6,279.2,95z"/>
	<path class="st1" d="M207.3,462.7c-0.1,13.5-11.2,24.6-24.7,24.7c-15.4,0.1-26.8-11.1-26.6-26c0.2-14.4,11.9-25.6,26.3-25.3
		C196.7,436.4,207.3,447.8,207.3,462.7z"/>
	<path class="st1" d="M484.4,375c-0.2,14-11.8,25.9-25,25.6c-14.2-0.3-27.3-13.2-26.1-26.8c1.2-15.1,10-25,25.2-25.3
		C475.1,348.3,484.5,360.2,484.4,375z"/>
	<path class="st1" d="M102.7,51.6c-0.3-10.6,9.7-21.6,20-21.7c12.9-0.1,22,8.9,22.8,21c0.6,10.1-11.4,21.9-21.5,21.7
		C114.1,72.4,103,61.4,102.7,51.6z"/>
	<path class="st1" d="M249.9,237.1c-11.8-0.2-20.3-9.1-20.1-20.7c0.2-9.2,8.7-21.6,21.7-20.5c10.9,0.9,21.2,10.7,20.9,21
		C272,227.8,261.5,237.2,249.9,237.1z"/>
	<path class="st1" d="M284.4,304.7c11.9,0,21.4,8.8,21.3,19.7c0,11.2-10.2,21.4-21.4,21.4c-10.8,0-21.6-9.9-21.3-20.3
		C263.2,315.7,272,302.6,284.4,304.7z"/>
	<path class="st1" d="M56.6,321.2c-14.6,0.9-20.7-10.5-21.4-20.6c-0.7-10.3,10.3-20.5,21-20.5c10.9-0.1,21.6,9.6,21.5,20.1
		C77.6,310.2,68.4,323.2,56.6,321.2z"/>
	<path class="st1" d="M347.7,56.4c-11,0-21.3-9.9-21.3-20.4c-0.1-12.6,8.3-20.8,21.2-20.7c11.1,0.1,21.2,9.8,21.4,20.5
		C369,46.2,358.4,56.5,347.7,56.4z"/>
	<path class="st1" d="M447.3,78.5c-1.2-11.2,11.8-20.3,20.2-20c11.5,0.4,21.1,10.6,20.9,22c-0.2,11.3-11.1,21.9-22.1,20.6
		C454.2,99.7,445.6,88,447.3,78.5z"/>
	<path class="st1" d="M338.1,134.4c10.4,0.2,17,7,16.9,17.5c-0.1,8.7-9.5,17.6-18,17.1c-8.6-0.5-17-9.3-16.7-17.6
		C320.5,143.8,328.1,132.9,338.1,134.4z"/>
	<path class="st1" d="M168.9,161.1c10.2-1.3,17.2,9.3,17.6,16.2c0.5,8.8-9.3,18.4-18.4,18.2c-8.4-0.2-16.3-8.9-16.3-17.9
		C151.9,167.9,158.8,161.2,168.9,161.1z"/>
	<path class="st1" d="M379.6,263.3c-0.2,10.4-7.1,16.7-17.6,16.9c-10,0.1-15.6-7.7-16.8-17c-0.9-7,9.8-18.1,17-17.6
		C372,246.3,381.5,255.3,379.6,263.3z"/>
	<path class="st1" d="M66.8,434c-10.5,0.1-16.7-6.5-17.8-16.7c-0.8-7.5,7-16.6,16.4-17.5c8.3-0.8,17.7,8.5,18.1,17.2
		C84,425,75.2,433.9,66.8,434z"/>
	<path class="st1" d="M312.7,403.2c10.2,0.2,16.8,6.5,17.1,16.2c0.3,10.1-7.4,17-18.6,16.8c-9.3-0.2-16.1-7.6-15.7-17.2
		C295.9,409.4,302.9,403,312.7,403.2z"/>
	<path class="st1" d="M445,452.5c10.2-0.1,15.9,6.1,17,15.9c1.1,9.4-8,17.7-16.6,18.3c-9.8,0.7-16.6-7-16.6-17.7
		C428.9,458.8,435,452.6,445,452.5z"/>
	<path class="st1" d="M451.4,236.8c0-10.6,7.1-18.1,16.8-17.7c8.3,0.3,16.1,9,16.1,17.9c0,10.1-7.1,16.6-17.7,16.5
		C457.4,253.3,451.4,246.7,451.4,236.8z"/>
	<path class="st1" d="M82.1,124.3c0,10.1-6.3,16.3-16.5,16.3c-8.8,0-17.9-7.8-17.7-16.1c0.2-8.6,9-18.1,18-17.1
		C75.9,108.5,82.1,114,82.1,124.3z"/>
	<path class="st1" d="M161.2,362.2c-10.5,0.1-17.7-6.9-17.5-16.9c0.2-9.5,7.2-16,17.3-16.1c9.4,0,16.9,6.5,17.3,15.2
		C178.8,353.5,170.4,362.2,161.2,362.2z"/>
</g>
</svg>
