<?xml version="1.0" encoding="utf-8"?>
<!-- Generator: Adobe Illustrator 20.1.0, SVG Export Plug-In . SVG Version: 6.00 Build 0)  -->
<svg version="1.1" id="Слой_1" xmlns="http://www.w3.org/2000/svg" xmlns:xlink="http://www.w3.org/1999/xlink" x="0px" y="0px"
	 viewBox="0 0 512 512" style="enable-background:new 0 0 512 512;" xml:space="preserve">
<g>
	<path d="M28.5,375.9c0-0.1,0-0.3,0-0.4c0.6-0.2,1.2-0.3,1.7-0.6c6.7-3.8,13.4-7.7,20.1-11.5c1.8-1,3.5-2.1,5.6-3.3
		c-8.7-5-17-9.8-25.5-14.6c4.2-5,8.1-9.9,12.3-14.5c10.8,6.2,21.3,12.3,32,18.4c4.5-2.6,9.1-5.2,13.9-8c-12.5-7.2-24.7-14.1-37-21.2
		c4.2-4.9,8.2-9.6,12.3-14.3c0.7,0.4,1.3,0.7,1.9,1.1c13.2,7.5,26.4,15,39.5,22.6c1.6,0.9,2.7,0.8,4.1-0.1c15.6-9,31.2-18,46.8-27
		c0.4-0.3,0.8-0.6,1.5-1c-10.1-3.7-19.9-7.3-30-11c0.7-1,1.3-1.7,1.9-2.5c5.7-6.9,11.5-13.7,17.2-20.6c0.4-0.5,1.1-1,1.1-2
		c-0.8,0-1.5,0-2.2,0c-7.4,0-14.8,0.1-22.1,0c-1.6,0-2.5,0.5-3.5,1.6c-8.2,9.9-16.4,19.8-24.7,29.6c-2.1,2.5-4.3,5.1-6.5,7.7
		c-5.4-3.1-10.7-6.2-16.2-9.3c8.2-9.9,16.3-19.5,24.3-29.2c-0.1-0.1-0.2-0.3-0.2-0.4c-7,0-14,0-20.9,0c-0.5-2.7-0.3-16.8,0.2-18.4
		c6.8,0,13.8,0,21.1,0c-8.3-10-16.3-19.6-24.5-29.4c5.6-3.2,10.8-6.2,16.2-9.3c1.2,1.4,2.3,2.7,3.4,4c9.3,11.1,18.5,22.2,27.8,33.3
		c0.8,1,1.6,1.5,3,1.5c7.7-0.1,15.5,0,23.2,0c0.5,0,1-0.1,1.9-0.1c-7-8.4-13.7-16.4-20.6-24.7c10.1-3.8,20-7.3,30.1-11.2
		c-0.5-0.4-0.7-0.6-1-0.7c-15.9-9.1-31.9-18.3-47.7-27.5c-1.3-0.7-2.2-0.7-3.4,0c-12.2,7-24.4,13.9-36.6,20.9
		c-1.7,1-3.4,1.9-5.1,2.8c-4.1-4.8-8.1-9.5-12.2-14.3c12.4-7.2,24.6-14,36.9-21.2c-4.2-2.4-8.2-4.6-12.1-7c-1.4-0.9-2.4-0.7-3.8,0
		c-9.5,5.5-19,11-28.5,16.5c-0.5,0.3-1.1,0.5-1.7,0.8c-4.1-4.8-8-9.5-12.1-14.4c8.6-4.9,16.9-9.7,25.6-14.7
		c-9.2-5.3-18.1-10.4-27.2-15.6c3.2-5.5,6.3-10.9,9.5-16.3c9.1,5.2,17.9,10.3,27.1,15.6c0-10,0-19.5,0-29.3
		c6.4,1.1,12.5,2.2,18.8,3.3c0,12.4,0,24.6,0,36.9c4.7,2.7,9.2,5.3,14.1,8.1c-0.1-14.4-0.3-28.4-0.4-42.6c6.4,1.2,12.5,2.3,18.8,3.5
		c0,16.7,0,33.3,0,49.8c16.9,9.7,33.6,19.3,50.6,29.2c-1.8-10.8-3.6-21.1-5.4-31.7c10.7,1.8,21.1,3.6,31.9,5.5c-1.2-2-2.1-3.6-3-5.2
		c-3.2-5.5-6.4-11.1-9.6-16.6c-0.6-1-1.2-1.7-2.5-1.8c-2.7-0.3-5.3-0.9-8-1.3c-11.2-1.9-22.3-3.8-33.5-5.8c-2.2-0.4-4.3-0.8-6.5-1.2
		c0-6.2,0-12.2,0-18.6c12.5,2.1,24.9,4.3,37.6,6.4c-3.7-6.4-7.2-12.5-10.8-18.7c5.4-3.1,10.7-6.2,16.1-9.3
		c3.6,6.2,7.1,12.2,10.8,18.6c4.5-12.2,8.9-23.9,13.3-35.8c5.5,3.2,10.8,6.2,16.1,9.3c-2.1,5.6-4.1,11-6.1,16.4
		c-3.6,9.8-7.2,19.6-10.9,29.3c-0.3,0.9-0.4,1.6,0.1,2.5c4.1,6.9,8,13.8,12,20.7c0.2,0.4,0.6,0.7,1,1.2c3.7-10.1,7.4-19.9,11.1-29.9
		c4.3,3.5,8.3,6.8,12.4,10.2c4.1,3.4,8.1,6.9,12.6,10.3c0-1.2,0-1.9,0-2.5c0-4.5,0-9.1,0-13.6c-0.1-13.6-0.2-27.3-0.3-40.9
		c0-0.4-0.1-0.8-0.1-1.3c-14.3-8.3-28.6-16.6-43-25c2.1-6,4.2-11.8,6.3-17.8c6.3,3.7,12.3,7.2,18.4,10.7c6.1,3.5,12,7.1,18.4,10.5
		c0-5.5,0-10.7,0-15.9c-10.6-6.1-21.3-12.3-31.9-18.4c2.2-6.1,4.3-11.9,6.5-17.8c8.5,4.9,16.9,9.7,25.5,14.7c0-1.1,0-1.8,0-2.5
		c0-4.2,0-8.4,0-12.5c0-5.4,0-10.9-0.1-16.3c6.4,0,12.8,0,19.2,0c-0.6,10.3-0.2,20.6-0.3,31.4c8.8-5.1,17.2-9.9,25.7-14.8
		c2.2,6.1,4.4,11.9,6.5,17.7c-0.5,0.3-0.9,0.6-1.3,0.8c-9.8,5.6-19.5,11.3-29.3,16.9c-1.2,0.7-1.6,1.5-1.6,2.8c0.1,3.9,0,7.8,0,11.7
		c0,0.7,0,1.3,0,2.5c12.5-7.3,24.7-14.3,37.1-21.4c2.1,6,4.2,11.8,6.3,17.8c-14.5,8.4-28.9,16.8-43.2,25.1c-0.4,3.7-0.3,56.4,0.2,58
		c8.1-6.7,16.2-13.4,24.5-20.3c3.9,10.1,7.3,20,11.2,30.2c0.6-0.9,0.9-1.4,1.2-1.9c3.8-6.5,7.5-13,11.3-19.5
		c0.8-1.3,0.9-2.3,0.4-3.6c-4.8-12.7-9.4-25.4-14.1-38.1c-0.9-2.4-1.8-4.8-2.7-7.3c5.4-3.1,10.7-6.2,16.1-9.3
		c4.4,12,8.8,23.7,13.3,35.9c3.7-6.4,7.2-12.5,10.8-18.6c5.5,3.1,10.7,6.2,16.1,9.3c-3.6,6.2-7,12.2-10.7,18.6
		c12.8-2.1,25.1-4.4,37.6-6.4c0,6.3,0,12.4,0,18.5c-4.1,0.7-8.1,1.4-12.1,2.1c-11.9,2.1-23.8,4.1-35.7,6.1c-1.3,0.2-2.1,0.7-2.7,1.8
		c-2.7,4.8-5.5,9.5-8.2,14.3c-1.4,2.4-2.8,4.8-4.3,7.5c10.8-1.8,21.1-3.6,31.8-5.4c-1.8,10.5-3.6,20.9-5.4,31.5
		c0.5-0.2,0.8-0.3,1-0.4c2.8-1.6,5.7-3.3,8.5-4.9c13.2-7.6,26.4-15.2,39.6-22.8c1.1-0.6,1.6-1.3,1.5-2.6c-0.1-3.1,0-6.3,0-9.4
		c0-12.3,0.1-24.5,0.1-36.8c0-0.6,0.1-1.2,0.1-1.9c6.2-1.2,12.2-2.3,18.3-3.4c0,3,0,5.7,0,8.5c0,2.9,0,5.7,0,8.6c0,2.8,0,5.6,0,8.4
		c0,2.9,0,5.7,0,8.6c0,2.7-0.1,5.5,0.1,8.4c0.7-0.3,1.1-0.5,1.4-0.7c3.6-2.1,7.2-4.2,10.9-6.2c1.4-0.7,1.8-1.6,1.8-3.1
		c-0.1-10.8,0-21.6,0-32.4c0-0.8,0-1.5,0-2.4c6.2-1.1,12.3-2.2,18.6-3.3c0,9.8,0,19.4,0,29.4c9.3-5.3,18.2-10.5,27.2-15.6
		c3.1,5.2,6,10.3,9,15.4c0,0.4,0,0.8,0,1.3c-8.8,5-17.6,10.1-26.7,15.3c8.6,5,17,9.8,25.6,14.7c-4.1,4.9-8.1,9.7-12.1,14.4
		c-0.4-0.2-0.7-0.2-0.9-0.4c-4.1-2.4-8.2-4.7-12.3-7.1c-5.8-3.4-11.7-6.7-17.5-10.1c-1-0.6-1.8-0.6-2.9,0c-1.9,1.2-3.8,2.2-5.8,3.4
		c-2.1,1.2-4.3,2.5-6.7,3.9c12.5,7.1,24.6,14.1,37,21.2c-4.2,4.9-8.3,9.5-12.3,14.3c-14.6-8.3-29-16.5-43.4-24.7
		c-16.8,9.6-33.5,19.2-50.6,29.1c10.3,3.8,20.1,7.4,30.3,11.1c-6.8,8.4-13.7,16.4-20.5,24.8c0.7,0.1,1.1,0.1,1.4,0.1c8,0,16,0,24,0
		c1.2,0,1.8-0.5,2.4-1.3c8.5-10.2,17-20.4,25.5-30.6c1.9-2.3,3.8-4.6,5.7-6.8c2.4,0.9,15.1,8.3,16.1,9.4
		c-7.9,9.7-16.1,19.2-24.3,29.3c7.6,0,14.6,0,21.6,0c0,6.2,0,12.1,0,18.3c-7.1,0-14.1,0-21.6,0c8.4,10,16.4,19.7,24.6,29.5
		c-5.5,3.2-10.8,6.2-16.2,9.3c-2-2.4-4-4.7-5.9-7c-8.5-10.2-17-20.4-25.5-30.6c-0.7-0.9-1.4-1.3-2.6-1.3c-7.9,0-15.7,0-23.6,0
		c-0.4,0-0.9,0.1-1.7,0.2c6.9,8.3,13.7,16.4,20.6,24.8c-10.1,3.7-20,7.4-30.3,11.2c17.1,9.9,33.9,19.5,50.6,29.1
		c14.5-8.3,29-16.5,43.4-24.8c4.1,4.8,8.2,9.5,12.3,14.3c-12.4,7.1-24.5,14-37,21.2c4.9,2.8,9.3,5.4,13.9,8
		c10.7-6.1,21.4-12.3,32.1-18.4c4.1,4.9,8.1,9.7,12.2,14.5c-8.5,5-16.9,9.6-25.4,14.7c0.7,0.4,1.1,0.7,1.5,1
		c7,4.1,14.1,8.1,21.1,12.2c1.3,0.8,2.6,1.6,3.9,2.4c0,0.4,0,0.8,0,1.3c-0.1,0.1-0.3,0.1-0.3,0.2c-1.8,3.2-3.6,6.4-5.5,9.6
		c-1,1.8-2.1,3.6-3.2,5.4c-4.6-2.7-9.1-5.3-13.6-7.8c-4.5-2.5-8.9-5.3-13.8-7.8c0.1,9.9,0.2,19.5,0.4,29.4
		c-6.5-1.1-12.6-2.2-18.8-3.3c0-12.4,0-24.6,0-36.7c-4-2.8-12.7-7.6-14-7.7c-0.4,13.9,0.4,27.9,0.1,42c-6.3-1.2-12.4-2.3-18.5-3.5
		c0-0.7-0.1-1.3-0.1-2c-0.1-15.2-0.1-30.4-0.1-45.5c0-1.8-0.6-2.7-2.1-3.6c-14.2-8.1-28.5-16.4-42.7-24.5c-1.8-1.1-3.7-2.1-5.9-3.4
		c1.8,10.7,3.6,21.1,5.4,31.7c-10.7-1.8-21.1-3.6-31.8-5.4c0.6,1.1,0.9,1.8,1.3,2.5c3.7,6.4,7.5,12.9,11.2,19.3
		c0.7,1.2,1.5,1.7,2.8,1.8c3,0.4,5.9,1,8.8,1.5c9.4,1.6,18.9,3.2,28.3,4.8c3.5,0.6,7.1,1.2,10.8,1.9c-0.1,6.2,0.1,12.3-0.1,18.6
		c-12.6-2.2-24.9-4.3-37.7-6.4c3.7,6.5,7.2,12.5,10.7,18.7c-5.5,3.2-10.7,6.3-16.1,9.2c-3.8-6.1-7-12.3-10.8-18.4
		c-4.5,12.1-8.8,23.8-13.2,35.7c-5.5-3.2-10.8-6.2-16.1-9.2c0.2-0.6,0.3-1,0.4-1.4c5.4-14.6,10.8-29.2,16.2-43.8
		c0.6-1.5,0.5-2.7-0.3-4.1c-3.2-5.4-6.3-10.8-9.4-16.2c-0.9-1.6-1.9-3.2-3-5.1c-3.8,10.2-7.4,20.1-11.2,30.1
		c-8.4-6.8-16.4-13.7-25-20.6c0,1.2,0,1.9,0,2.5c0,17.8,0,35.7,0,53.5c0,1.6,0.5,2.5,1.9,3.2c12.4,7.1,24.8,14.4,37.2,21.6
		c1.4,0.8,2.8,1.7,4.3,2.6c-2.1,6-4.2,11.8-6.3,17.7c-12.3-7.1-24.4-14.2-36.7-21.2c0,5.6,0,10.8,0,16c10.6,6.1,21.2,12.2,31.9,18.4
		c-2.2,6-4.3,11.9-6.5,17.8c-8.6-4.9-16.8-9.7-25.4-14.7c0,1.1,0,1.7,0,2.4c0,3.4,0,6.8,0,10.2c0,6.1,0,12.3,0.1,18.4
		c-6.4,0-12.8,0-19.2,0c0-0.3,0.1-0.7,0.1-1c0-9.4,0-18.8,0-28.2c0-0.5-0.1-0.9-0.1-1.7c-8.5,4.9-16.8,9.7-25.3,14.6
		c-2.2-6.1-4.4-12-6.5-17.9c10.9-6.3,21.5-12.4,32.1-18.5c0-5.3,0-10.5,0-16c-12.4,7.2-24.6,14.2-37,21.4c-2.1-6-4.1-11.8-6.2-17.7
		c0.9-0.6,1.7-1.1,2.5-1.5c13-7.6,26.1-15.2,39.2-22.7c1.2-0.7,1.7-1.4,1.7-2.9c-0.1-18,0-36.1,0-54.1c0-0.6-0.1-1.2-0.1-2.1
		c-8.4,6.9-16.5,13.6-24.8,20.5c-3.8-10.1-7.4-20-11.2-30.1c-0.5,0.7-0.8,1.1-1.1,1.6c-3.9,6.7-7.7,13.4-11.6,20
		c-0.7,1.2-0.7,2.1-0.2,3.3c5.4,14.6,10.8,29.2,16.2,43.8c0.2,0.6,0.3,1.2,0.5,1.8c-5.4,3.1-10.7,6.1-16.1,9.2
		c-4.4-12-8.8-23.7-13.3-35.9c-3.7,6.4-7.2,12.5-10.8,18.6c-5.5-3.2-10.8-6.2-16.1-9.3c3.6-6.2,7.1-12.2,10.7-18.6
		c-12.8,2.2-25.2,4.3-37.6,6.4c0-6.3,0-12.4,0-18.6c0.5-0.1,0.9-0.2,1.3-0.3c6.2-1.1,12.3-2.1,18.5-3.2c9.3-1.6,18.6-3.2,27.9-4.7
		c1.3-0.2,2.1-0.7,2.7-1.9c3.1-5.4,6.2-10.8,9.4-16.3c1-1.7,2-3.5,3.2-5.6c-10.8,1.8-21.2,3.6-31.8,5.4c1.8-10.6,3.6-20.9,5.4-31.6
		c-0.9,0.5-1.5,0.7-2.1,1.1c-15.7,9-31.3,18.1-47,27c-1.2,0.7-1.6,1.5-1.6,2.8c0,15.1-0.1,30.2-0.1,45.3c0,0.6,0,1.1,0,1.7
		c0,0.3-0.1,0.5-0.1,0.9c-6.1,1.1-12.2,2.3-18.6,3.5c0.4-14.3,0.5-28.2,0.4-42.5c-0.9,0.4-1.5,0.7-2.1,1c-3.4,1.9-6.7,4-10.1,5.8
		c-1.5,0.8-1.9,1.7-1.9,3.3c0.1,10.8,0,21.6,0,32.4c0,0.7,0,1.5,0,2.3c-6.3,1.1-12.4,2.2-18.9,3.3c0.1-9.9,0.3-19.5,0.4-29.5
		c-9.4,5.4-18.3,10.5-27.3,15.7c-0.4-0.7-0.8-1.2-1.1-1.7c-2.5-4.3-5-8.5-7.5-12.8C29.5,376.9,28.9,376.4,28.5,375.9z M158.6,281.9
		c0.3,0.2,0.4,0.3,0.5,0.4c6.2,2.3,12.4,4.5,18.6,6.8c0.8,0.3,1.4,0.2,2.1-0.2c3.4-2,6.7-3.9,10.1-5.8c9.5-5.5,19-10.9,28.5-16.4
		c0.5-0.3,1-0.7,1.6-1.1c-0.1-0.1-0.1-0.2-0.2-0.3c-15.8,0-31.5,0-47.4,0C167.9,270.8,163.2,276.4,158.6,281.9z M352.2,282.1
		c-0.5-0.7-0.8-1.1-1.1-1.6c-3.9-4.7-7.9-9.4-11.7-14.1c-0.8-0.9-1.5-1.2-2.7-1.2c-14.8,0-29.5,0-44.3,0c-0.5,0-1,0.1-1.9,0.2
		c0.8,0.5,1.1,0.7,1.4,0.9c12.2,7,24.5,14,36.7,21.1c2.4,1.4,4.4,1.8,7.1,0.7C341,286,346.5,284.2,352.2,282.1z M229.4,352.7
		c0.7-0.5,1.2-0.8,1.6-1.2c4.5-3.8,9.1-7.6,13.6-11.3c1.1-0.9,1.5-1.8,1.5-3.2c0-14.6,0-29.2,0-43.9c0-0.5,0-1,0-1.6
		c-0.8,0.5-1.1,1-1.5,1.6c-2.2,3.7-4.3,7.5-6.5,11.2c-5.2,9-10.4,17.9-15.6,26.9c-0.5,0.9-0.6,1.6-0.2,2.5c1.4,3.6,2.7,7.2,4,10.7
		C227.4,347.2,228.4,349.9,229.4,352.7z M229.5,159.6c-0.2,0.5-0.4,0.8-0.5,1c-2.2,5.8-4.3,11.6-6.5,17.4c-0.5,1.2-0.4,2.2,0.3,3.3
		c3,5,5.9,10.1,8.8,15.1c4.3,7.4,8.5,14.8,12.8,22.2c0.4,0.7,0.7,1.6,1.6,2.1c0-0.4,0.1-0.6,0.1-0.8c0-15,0-30.1,0-45.1
		c0-1.1-0.4-1.8-1.2-2.4c-4.1-3.3-8.1-6.7-12.2-10.1C231.8,161.4,230.7,160.6,229.5,159.6z M264.7,220.4c0.1,0,0.3,0.1,0.4,0.1
		c0.3-0.4,0.6-0.8,0.8-1.2c7.4-12.7,14.7-25.5,22.1-38.2c0.6-1,0.7-1.8,0.3-2.9c-2.1-5.5-4.1-11.1-6.2-16.6c-0.3-0.7-0.6-1.3-0.9-2
		c-0.4,0.2-0.5,0.3-0.7,0.5c-5,4.1-9.9,8.3-14.9,12.3c-1,0.8-1,1.7-1,2.8c0,14.5,0,28.9,0,43.4C264.7,219.2,264.7,219.8,264.7,220.4
		z M265.1,291.6c-0.1,0.1-0.3,0.1-0.4,0.2c0,15.7,0,31.4,0,47.2c5.5,4.6,11,9.1,16.6,13.8c0.2-0.5,0.3-0.7,0.4-1
		c2.1-5.7,4.2-11.5,6.4-17.2c0.6-1.5,0.4-2.5-0.3-3.9c-6.6-11.2-13-22.5-19.6-33.7C267.2,295.2,266.2,293.4,265.1,291.6z
		 M229.1,230.3c0.1-0.1,0.2-0.2,0.3-0.3c-0.2-0.3-0.3-0.6-0.5-0.9c-7.3-12.7-14.7-25.4-22-38.1c-0.9-1.5-1.9-2.1-3.5-2.4
		c-4.5-0.7-8.9-1.5-13.3-2.3c-1.8-0.3-3.6-0.5-5.5-0.8c0,0.5,0,0.8,0,1c1,6,2.1,12,3.1,18c0.2,1.4,0.8,2.3,2.1,3.1
		c7.8,4.4,15.6,8.9,23.3,13.4C218.4,224.1,223.8,227.2,229.1,230.3z M281.6,282c-0.1,0.1-0.2,0.2-0.2,0.3c0.1,0.2,0.2,0.5,0.4,0.7
		c7.3,12.6,14.7,25.2,21.9,37.9c1,1.7,2.1,2.5,4,2.8c5.5,0.9,10.9,1.9,16.4,2.8c0.7,0.1,1.5,0.1,2.3,0.2c-1.1-6.7-2.3-13.1-3.3-19.5
		c-0.2-1.3-1.1-2-2.1-2.6c-10.5-6.1-21.1-12.1-31.6-18.2C286.8,284.9,284.2,283.5,281.6,282z M290.6,246.7c0.7,0.2,0.8,0.2,1,0.2
		c15.2,0,30.5,0,45.7,0c1,0,1.5-0.4,2.1-1.1c4-4.8,8-9.6,12-14.4c0.3-0.3,0.5-0.8,0.7-1.2c-0.5-0.2-0.8-0.4-1.1-0.5
		c-5.7-2.1-11.4-4.1-17-6.3c-1.4-0.5-2.4-0.4-3.7,0.4c-10.6,6.2-21.3,12.3-32,18.4C295.9,243.6,293.4,245,290.6,246.7z M326.3,185.5
		c-0.4,0-0.7-0.1-0.9,0c-5.9,1-11.9,2.2-17.8,3c-1.9,0.3-2.9,1.1-3.8,2.7c-6.5,11.4-13.2,22.7-19.7,34.1c-0.9,1.5-1.7,3-2.6,4.6
		c0.9-0.1,1.5-0.4,2.1-0.7c12.6-7.3,25.3-14.6,37.9-21.8c1.1-0.6,1.4-1.4,1.6-2.4c0.5-3.3,1.1-6.6,1.7-9.8
		C325.2,191.9,325.8,188.8,326.3,185.5z M229.4,282.4c-0.1-0.1-0.2-0.2-0.3-0.3c-0.5,0.3-1,0.5-1.5,0.8c-12.8,7.4-25.5,14.7-38.3,22
		c-1,0.6-1.4,1.4-1.6,2.5c-0.7,4.1-1.4,8.2-2.1,12.3c-0.4,2.3-0.8,4.6-1.2,7c0.9-0.1,1.6-0.1,2.3-0.2c5.5-0.9,10.9-1.9,16.4-2.8
		c1.9-0.3,3-1.1,4-2.8c5.2-9.2,10.5-18.3,15.8-27.4C225.1,289.8,227.3,286.1,229.4,282.4z M158.7,230.2c0.2,0.4,0.3,0.7,0.5,0.9
		c4.1,5,8.3,9.9,12.4,14.9c0.7,0.8,1.4,0.9,2.4,0.9c14.8,0,29.7,0,44.5,0c0.4,0,0.9-0.1,1.5-0.2c-0.5-0.3-0.7-0.5-0.9-0.7
		c-13.1-7.5-26.2-15-39.2-22.6c-0.9-0.5-1.6-0.5-2.5-0.1c-4.8,1.8-9.7,3.5-14.5,5.3C161.5,229.1,160.1,229.7,158.7,230.2z"/>
</g>
</svg>
