<?xml version="1.0" encoding="utf-8"?>
<!-- Generator: Adobe Illustrator 20.1.0, SVG Export Plug-In . SVG Version: 6.00 Build 0)  -->
<svg version="1.1" id="Слой_1" xmlns="http://www.w3.org/2000/svg" xmlns:xlink="http://www.w3.org/1999/xlink" x="0px" y="0px"
	 viewBox="0 0 512 512" style="enable-background:new 0 0 512 512;" xml:space="preserve">
<g>
	<path d="M37.5,100.5c-3.9-6.7-8.1-11.9-3.8-20.6c0.4-0.8,0.9-1.6,1.6-2.2c7.3-6,18.6-10.3,28-11.4c86.6-10.4,172.4-25,256.9-47.3
		c21.1-5.6,41.2-15.9,63.8-14.8c7.3,6.1,8,14.7,9.7,23.2c9.7,49,23.3,97.4,43.4,143.2c6.3,14.2,13,28.5,20.8,41.9
		c4.1,7.2,8.1,14.4,12.6,21.4c2.3,3.6,4.7,7.1,7.3,10.5c2.1,2.8,5.5,5.3,6.8,8.5c1.3,3.1,1.3,6.6,0.3,9.8c-1,3.2-2.9,6-5.2,8.4
		c-6.7,6.7-14.8,11.7-22.7,17.2c-8.5,6-17,11.9-25.6,17.9c-17,11.9-34.1,23.8-51.1,35.7c-34.1,23.8-68.1,47.6-102.2,71.5
		C244.1,437.3,210,461.1,176,485c-7.8,5.5-15.7,11-23.5,16.5c-7.5,5.3-14.8,9.6-23.9,5.7c-9.6-4.1-10.1-12.7-10.2-21.8
		c-0.4-23.7-4.4-47.2-10.6-69.9c-19.8-71.3-34.9-143.6-49.6-216c-4.4-21.5-7.4-43.3-11.8-64.8c-2-9.9-3.1-23.3-7.9-32.3
		C38.2,101.7,37.8,101.1,37.5,100.5z M102.6,96.2c0.9,5.3,4.9,6.8,8,9c53,37.6,101.8,79.8,142.4,131c10.8,13.6,23.3,25.8,37.2,36.3
		c17.3,13.2,18.1,13,23.9-7c3-10.6,5.9-21.3,7.9-32.1c10.9-58.2,10.6-117.9,21.1-176.1c1.9-10.5-3.2-7.9-9-6.3
		C258.1,71.8,180.6,85.2,102.6,96.2z M80.9,136c4.9,25.1,9.6,49,14.1,73c12,63.4,26.2,126.3,43.3,188.5c1,3.7,1.6,9.4,5.6,9.3
		c3.9-0.1,2.9-6.1,4.1-9.5c13.6-38.5,27.4-76.9,43.7-114.5c6.2-14.3,20.5-27.9,17.3-42.6c-3.1-14.5-20-23.4-31.1-34.6
		c-26.7-26.9-56.6-50.1-87.6-71.9c-2.4-1.7-5.6-2.4-8.4-3.5C81.6,132.6,81.2,134.8,80.9,136z M169.6,446.9
		c46.8-32.7,89.9-62.8,132.9-92.9c39.3-27.5,78.6-55.1,118.1-82.4c7.3-5,10.8-8-0.3-13.2c-17.1-8-33.6-17-50-26.4
		c-10.3-5.9-13.3-2.6-14.9,8.1c-3.4,22.6-8.7,44.8-18.7,65.4c-10.1,20.8-16.1,22.5-36.7,12.7c-21-9.9-38.2-24.8-54.5-40.9
		c-5.3-5.2-8.6-9.1-13.2,0.7C207,331.2,187.6,386.3,169.6,446.9z M371.2,100.2c-1.4,13.3-2.6,26.4-4.2,39.5
		c-6.3,50.8-6.3,50.9,40.2,73.5c3.2,1.6,6.8,6.2,10.1,3.4c3.4-3-0.7-7-2.2-10.2c-14.8-31.3-27.5-63.4-36.8-96.8
		C377.3,105.9,376.2,101.9,371.2,100.2z"/>
</g>
</svg>
