<?xml version="1.0" encoding="utf-8"?>
<!-- Generator: Adobe Illustrator 20.1.0, SVG Export Plug-In . SVG Version: 6.00 Build 0)  -->
<svg version="1.1" id="Слой_1" xmlns="http://www.w3.org/2000/svg" xmlns:xlink="http://www.w3.org/1999/xlink" x="0px" y="0px"
	 viewBox="0 0 512 512" style="enable-background:new 0 0 512 512;" xml:space="preserve">
<g>
	<path d="M512,251.8c0,2.8,0,5.7,0,8.5c-0.1,0.5-0.1,1-0.2,1.5c-0.3,5.2-0.5,10.5-0.9,15.7c-1.1,14.9-3.7,29.5-7.5,44
		c-10.7,40.2-30,75.7-58,106.5c-29.6,32.5-65.2,55.9-106.8,70.2c-24.8,8.5-50.4,12.9-76.6,13.5c-0.6,0-1.1,0.1-1.7,0.2
		c-2.8,0-5.7,0-8.5,0c-0.5-0.1-0.9-0.2-1.4-0.2c-12.3-0.3-24.5-1.4-36.6-3.4c-19.8-3.3-39-8.8-57.5-16.7
		C119,475.8,87.2,452.4,61,421.5c-25.5-30-43.1-64.2-52.8-102.4C4.1,303,1.6,286.6,0.7,270c-0.2-3.2-0.3-6.4-0.5-9.7
		c0-2.8,0-5.7,0-8.5c0.1-0.5,0.2-1,0.2-1.5c0.2-9.4,0.9-18.7,2.1-27.9c1.9-14.5,5-28.7,9.4-42.7c10.3-32.7,26.4-62.2,48.5-88.4
		c26.8-31.7,59.3-55.6,97.6-71.5c28.9-12,59-18.4,90.3-19.3c1.2,0,2.3-0.1,3.5-0.2c2.8,0,5.7,0,8.5,0c0.4,0.1,0.8,0.1,1.3,0.2
		c7.2,0.5,14.5,0.7,21.7,1.4c14.6,1.4,28.9,4.2,43,8.3c38.2,11,72.2,29.7,101.5,56.5c39.7,36.2,65.6,80.6,77.7,133
		c3.2,14,5.1,28.1,5.9,42.4C511.6,245.3,511.8,248.6,512,251.8z M481.5,256.2c0.1-124.3-100.9-225.3-225.2-225.4
		C132,30.6,30.9,131.6,30.8,255.9C30.6,380.2,131.6,481.4,256,481.5C380.3,481.6,481.4,380.5,481.5,256.2z"/>
	<path d="M290.1,332c16.2,28,32.3,55.9,48.4,83.8c-0.1,0.1-0.1,0.2-0.1,0.3c-8.7,5-17.4,9.8-27.2,12.3c-10.5,2.7-20.7,1.9-30.7-2.3
		c-8-3.3-15.2-8.1-22.2-13.2c-16.6-12.2-30.9-26.7-44.2-42.4c-18.1-21.5-33.6-44.8-47.2-69.5c-13.3-24.2-24.4-49.4-32.4-76
		c-3.6-11.9-6.3-24-8-36.3c-1-7.7-1.6-15.5-1.4-23.3c0.3-8.7,2-17.1,6.5-24.7c2.9-4.8,6.6-9,10.8-12.6c6.6-5.6,14-10,21.6-14.4
		c16.1,28,32.3,55.9,48.5,83.9c-0.9,0.6-1.7,1.1-2.6,1.8c-6.8,5-10.3,12.1-11.9,20.2c-1.6,7.9-1.2,15.9,0.1,23.8
		c4.4,25.1,15.6,47.1,31.7,66.6c6.7,8.1,14.4,15.2,23.7,20.4c6.3,3.5,12.9,5.9,20.2,5.9C279.6,336.4,284.9,334.9,290.1,332z"/>
	<path d="M262.1,172c0,4.3-1.9,7.5-5.6,9.7c-7.8,4.6-15.7,9.2-23.6,13.6c-5.8,3.3-12,1.4-15.4-4.6c-12.1-20.9-24.1-41.8-36.2-62.6
		c-2.9-5.1-5.9-10.2-8.8-15.3c-2.8-4.9-2.2-9.8,1.6-13.6c0.8-0.8,1.7-1.4,2.7-2c7.6-4.4,15.2-8.8,22.8-13.2
		c6.1-3.5,12.3-1.8,15.8,4.3c15,25.9,30,51.9,44.9,77.8C261.3,168,262.1,169.9,262.1,172z"/>
</g>
<path d="M295.7,323.4c0.1-4.2,1.9-7.4,5.6-9.6c7.8-4.6,15.7-9.2,23.6-13.6c5.9-3.3,12-1.4,15.4,4.5c10.5,18.2,21,36.3,31.5,54.5
	c4.5,7.8,9,15.7,13.6,23.5c2.3,4,2.5,8.1-0.2,11.9c-1,1.4-2.4,2.7-4,3.6c-7.7,4.5-15.4,9-23.1,13.4c-5.8,3.3-12.1,1.6-15.4-4.2
	c-15.1-26.1-30.1-52.2-45.2-78.3C296.3,327.4,295.7,325.6,295.7,323.4z"/>
</svg>
